{"asset":{"version":"2.0","generator":"Blockbench 4.11.2 glTF exporter"},"scenes":[{"nodes":[7],"name":"blockbench_export"}],"scene":0,"nodes":[{"rotation":[-0.7071067811865475,0,0,0.7071067811865476],"translation":[0.21437500000000054,0.06875000000000014,-0.081875],"name":"cuboid","mesh":0},{"rotation":[-0.5684126330660952,0.42060322290898156,-0.4206032293233254,0.5684126414254314],"translation":[-0.08562500000000055,0.3812499999999999,0.011874999999999974],"name":"cuboid","mesh":1},{"rotation":[-0.6916547963086639,-0.14701576545994885,0.14701576747044837,0.6916548066517871],"translation":[0.17875000000000002,0.35625000000000046,0.011874999999999959],"name":"cuboid","mesh":2},{"translation":[-0.073125,-0.012499999999999976,0.011875],"name":"cuboid","mesh":3},{"translation":[0.298125,0.031250000000000014,0],"name":"cuboid","mesh":4},{"translation":[-0.298125,-0.031250000000000014,0],"name":"black","children":[4]},{"rotation":[0,-0.7071067811865475,0,0.7071067811865476],"translation":[0.073125,-0.049999999999999975,-0.011875],"name":"piano","children":[0,1,2,3,5]},{"children":[6]}],"bufferViews":[{"buffer":0,"byteOffset":0,"byteLength":1152,"target":34962,"byteStride":12},{"buffer":0,"byteOffset":1152,"byteLength":1152,"target":34962,"byteStride":12},{"buffer":0,"byteOffset":2304,"byteLength":768,"target":34962,"byteStride":8},{"buffer":0,"byteOffset":3072,"byteLength":288,"target":34963},{"buffer":0,"byteOffset":3360,"byteLength":288,"target":34962,"byteStride":12},{"buffer":0,"byteOffset":3648,"byteLength":288,"target":34962,"byteStride":12},{"buffer":0,"byteOffset":3936,"byteLength":192,"target":34962,"byteStride":8},{"buffer":0,"byteOffset":4128,"byteLength":72,"target":34963},{"buffer":0,"byteOffset":4200,"byteLength":288,"target":34962,"byteStride":12},{"buffer":0,"byteOffset":4488,"byteLength":288,"target":34962,"byteStride":12},{"buffer":0,"byteOffset":4776,"byteLength":192,"target":34962,"byteStride":8},{"buffer":0,"byteOffset":4968,"byteLength":72,"target":34963},{"buffer":0,"byteOffset":5040,"byteLength":7248,"target":34962,"byteStride":12},{"buffer":0,"byteOffset":12288,"byteLength":7248,"target":34962,"byteStride":12},{"buffer":0,"byteOffset":19536,"byteLength":4832,"target":34962,"byteStride":8},{"buffer":0,"byteOffset":24368,"byteLength":1812,"target":34963},{"buffer":0,"byteOffset":26180,"byteLength":2304,"target":34962,"byteStride":12},{"buffer":0,"byteOffset":28484,"byteLength":2304,"target":34962,"byteStride":12},{"buffer":0,"byteOffset":30788,"byteLength":1536,"target":34962,"byteStride":8},{"buffer":0,"byteOffset":32324,"byteLength":576,"target":34963},{"buffer":0,"byteOffset":32900,"byteLength":36},{"buffer":0,"byteOffset":32936,"byteLength":144},{"buffer":0,"byteOffset":33080,"byteLength":36},{"buffer":0,"byteOffset":33116,"byteLength":108},{"buffer":0,"byteOffset":33224,"byteLength":28},{"buffer":0,"byteOffset":33252,"byteLength":84}],"buffers":[{"byteLength":33336,"uri":"data:application/octet-stream;base64,"}],"accessors":[{"bufferView":0,"componentType":5126,"count":96,"max":[0.005932568106800318,0.0062500000931322575,0.01875000074505806],"min":[-0.5809325575828552,-0.3187499940395355,-0.01885353773832321],"type":"VEC3"},{"bufferView":1,"componentType":5126,"count":96,"max":[1,1,1],"min":[-1,-1,-0.9998477101325989],"type":"VEC3"},{"bufferView":2,"componentType":5126,"count":96,"max":[0.578125,0.578125],"min":[0.03125,0.0625],"type":"VEC2"},{"bufferView":3,"componentType":5123,"count":144,"max":[95],"min":[0],"type":"SCALAR"},{"bufferView":4,"componentType":5126,"count":24,"max":[0.005932568106800318,0.10000000149011612,0.29374998807907104],"min":[-0.005932568106800318,-0.10000000149011612,-0.2938535511493683],"type":"VEC3"},{"bufferView":5,"componentType":5126,"count":24,"max":[1,1,1],"min":[-1,-1,-0.9647563695907593],"type":"VEC3"},{"bufferView":6,"componentType":5126,"count":24,"max":[0.3125,0.375],"min":[0,0],"type":"VEC2"},{"bufferView":7,"componentType":5123,"count":36,"max":[23],"min":[0],"type":"SCALAR"},{"bufferView":8,"componentType":5126,"count":24,"max":[0.008792104199528694,0.0062500000931322575,0.09472039341926575],"min":[-0.0062500000931322575,-0.0062500000931322575,-0.08911427110433578],"type":"VEC3"},{"bufferView":9,"componentType":5126,"count":24,"max":[0.9799412488937378,1,0.9096017479896545],"min":[-0.9799402952194214,-1,-0.9126904606819153],"type":"VEC3"},{"bufferView":10,"componentType":5126,"count":24,"max":[0.53125,0.53125],"min":[0.0625,0],"type":"VEC2"},{"bufferView":11,"componentType":5123,"count":36,"max":[23],"min":[0],"type":"SCALAR"},{"bufferView":12,"componentType":5126,"count":604,"max":[0.29374998807907104,0.30000001192092896,0.22499999403953552],"min":[-0.29374998807907104,0.10000000149011612,-0.10000000149011612],"type":"VEC3"},{"bufferView":13,"componentType":5126,"count":604,"max":[1,1,1],"min":[-1,-1,-1],"type":"VEC3"},{"bufferView":14,"componentType":5126,"count":604,"max":[0.515625,0.515625],"min":[0,0],"type":"VEC2"},{"bufferView":15,"componentType":5123,"count":906,"max":[603],"min":[0],"type":"SCALAR"},{"bufferView":16,"componentType":5126,"count":192,"max":[0.15780757367610931,0.22499999403953552,0.19374999403953552],"min":[-0.3040575683116913,0.21250000596046448,0.15625],"type":"VEC3"},{"bufferView":17,"componentType":5126,"count":192,"max":[1,1,1],"min":[-1,0,0],"type":"VEC3"},{"bufferView":18,"componentType":5126,"count":192,"max":[0.578125,0.578125],"min":[0,0],"type":"VEC2"},{"bufferView":19,"componentType":5123,"count":288,"max":[191],"min":[0],"type":"SCALAR"},{"bufferView":20,"componentType":5126,"count":9,"max":[0.4583333432674408],"min":[0],"type":"SCALAR"},{"bufferView":21,"componentType":5126,"count":9,"max":[0,-0.6900030970573425,0,0.7221627235412598],"min":[-0.046572495251894,-0.7071067690849304,-0.014412909746170044,0.7071067690849304],"type":"VEC4"},{"bufferView":22,"componentType":5126,"count":9,"max":[0.4583333432674408],"min":[0],"type":"SCALAR"},{"bufferView":23,"componentType":5126,"count":9,"max":[0.07312499731779099,1.4187500476837158,-0.011874999850988388],"min":[0.07312499731779099,-0.0062500000931322575,-0.011874999850988388],"type":"VEC3"},{"bufferView":24,"componentType":5126,"count":7,"max":[0.75],"min":[0],"type":"SCALAR"},{"bufferView":25,"componentType":5126,"count":7,"max":[1,1,1],"min":[1,0.46000000834465027,1],"type":"VEC3"}],"materials":[{"pbrMetallicRoughness":{"metallicFactor":0,"roughnessFactor":1,"baseColorTexture":{"index":0}},"alphaMode":"MASK","alphaCutoff":0.05,"doubleSided":true}],"textures":[{"sampler":0,"source":0,"name":"pjanino"}],"samplers":[{"magFilter":9728,"minFilter":9728,"wrapS":33071,"wrapT":33071}],"images":[{"mimeType":"image/png","uri":"data:image/png;base64,"}],"meshes":[{"primitives":[{"mode":4,"attributes":{"POSITION":0,"NORMAL":1,"TEXCOORD_0":2},"indices":3,"material":0}]},{"primitives":[{"mode":4,"attributes":{"POSITION":4,"NORMAL":5,"TEXCOORD_0":6},"indices":7,"material":0}]},{"primitives":[{"mode":4,"attributes":{"POSITION":8,"NORMAL":9,"TEXCOORD_0":10},"indices":11,"material":0}]},{"primitives":[{"mode":4,"attributes":{"POSITION":12,"NORMAL":13,"TEXCOORD_0":14},"indices":15,"material":0}]},{"primitives":[{"mode":4,"attributes":{"POSITION":16,"NORMAL":17,"TEXCOORD_0":18},"indices":19,"material":0}]}],"animations":[{"name":"fall","samplers":[{"input":20,"output":21,"interpolation":"LINEAR"},{"input":22,"output":23,"interpolation":"LINEAR"},{"input":24,"output":25,"interpolation":"LINEAR"}],"channels":[{"sampler":0,"target":{"node":6,"path":"rotation"}},{"sampler":1,"target":{"node":6,"path":"translation"}},{"sampler":2,"target":{"node":6,"path":"scale"}}]}]}