{"asset":{"version":"2.0","generator":"Blockbench 4.11.2 glTF exporter"},"scenes":[{"nodes":[10],"name":"blockbench_export"}],"scene":0,"nodes":[{"rotation":[-0.7071067811865475,0,0,0.7071067811865476],"name":"toast1","mesh":0},{"translation":[0.11874999999999991,0.2124999999999999,0.2749999999999999],"name":"toast1","children":[0]},{"rotation":[-0.7071067811865475,0,0,0.7071067811865476],"name":"toast2","mesh":1},{"translation":[0.2562499999999999,0.2124999999999999,0.2749999999999999],"name":"toast2","children":[2]},{"translation":[0,-0.015625,0],"name":"toasts","children":[1,3]},{"translation":[-0.125,-0.1625000000000001,-0.3500000000000001],"name":"toaster_itself","mesh":2},{"translation":[0.31249999999999994,-0.0625,0.625],"name":"toaster_itself","children":[5]},{"rotation":[0,-0.3826834323650898,0,0.9238795325112867],"name":"lever","mesh":3},{"translation":[0.31249999999999994,-0.0625,0.625],"name":"toast_lever","children":[7]},{"rotation":[0,-1,0,6.123233995736766e-17],"translation":[0.31250000000000006,0.2875000000000001,0.2875000000000001],"name":"toaster","children":[4,6,8]},{"children":[9]}],"bufferViews":[{"buffer":0,"byteOffset":0,"byteLength":3552,"target":34962,"byteStride":12},{"buffer":0,"byteOffset":3552,"byteLength":3552,"target":34962,"byteStride":12},{"buffer":0,"byteOffset":7104,"byteLength":2368,"target":34962,"byteStride":8},{"buffer":0,"byteOffset":9472,"byteLength":792,"target":34963},{"buffer":0,"byteOffset":10264,"byteLength":3552,"target":34962,"byteStride":12},{"buffer":0,"byteOffset":13816,"byteLength":3552,"target":34962,"byteStride":12},{"buffer":0,"byteOffset":17368,"byteLength":2368,"target":34962,"byteStride":8},{"buffer":0,"byteOffset":19736,"byteLength":792,"target":34963},{"buffer":0,"byteOffset":20528,"byteLength":3888,"target":34962,"byteStride":12},{"buffer":0,"byteOffset":24416,"byteLength":3888,"target":34962,"byteStride":12},{"buffer":0,"byteOffset":28304,"byteLength":2592,"target":34962,"byteStride":8},{"buffer":0,"byteOffset":30896,"byteLength":948,"target":34963},{"buffer":0,"byteOffset":31844,"byteLength":768,"target":34962,"byteStride":12},{"buffer":0,"byteOffset":32612,"byteLength":768,"target":34962,"byteStride":12},{"buffer":0,"byteOffset":33380,"byteLength":512,"target":34962,"byteStride":8},{"buffer":0,"byteOffset":33892,"byteLength":156,"target":34963},{"buffer":0,"byteOffset":34048,"byteLength":40},{"buffer":0,"byteOffset":34088,"byteLength":120},{"buffer":0,"byteOffset":34208,"byteLength":40},{"buffer":0,"byteOffset":34248,"byteLength":120},{"buffer":0,"byteOffset":34368,"byteLength":4},{"buffer":0,"byteOffset":34372,"byteLength":12},{"buffer":0,"byteOffset":34384,"byteLength":20},{"buffer":0,"byteOffset":34404,"byteLength":60},{"buffer":0,"byteOffset":34464,"byteLength":48},{"buffer":0,"byteOffset":34512,"byteLength":192},{"buffer":0,"byteOffset":34704,"byteLength":48},{"buffer":0,"byteOffset":34752,"byteLength":144},{"buffer":0,"byteOffset":34896,"byteLength":52},{"buffer":0,"byteOffset":34948,"byteLength":208},{"buffer":0,"byteOffset":35156,"byteLength":52},{"buffer":0,"byteOffset":35208,"byteLength":156},{"buffer":0,"byteOffset":35364,"byteLength":32},{"buffer":0,"byteOffset":35396,"byteLength":128},{"buffer":0,"byteOffset":35524,"byteLength":32},{"buffer":0,"byteOffset":35556,"byteLength":96}],"buffers":[{"byteLength":35652,"uri":"data:application/octet-stream;base64,"}],"accessors":[{"bufferView":0,"componentType":5126,"count":296,"max":[0.02500000037252903,0.2632209062576294,0.2852171063423157],"min":[-0.02500000037252903,-0.2632201015949249,-0.26875001192092896],"type":"VEC3"},{"bufferView":1,"componentType":5126,"count":296,"max":[1,1,1],"min":[-1,-1,-1],"type":"VEC3"},{"bufferView":2,"componentType":5126,"count":296,"max":[0.75,0.9076687693595886],"min":[0.003812993410974741,0],"type":"VEC2"},{"bufferView":3,"componentType":5123,"count":396,"max":[295],"min":[0],"type":"SCALAR"},{"bufferView":4,"componentType":5126,"count":296,"max":[0.02500000037252903,0.2632209062576294,0.2852171063423157],"min":[-0.02500000037252903,-0.2632201015949249,-0.26875001192092896],"type":"VEC3"},{"bufferView":5,"componentType":5126,"count":296,"max":[1,1,1],"min":[-1,-1,-1],"type":"VEC3"},{"bufferView":6,"componentType":5126,"count":296,"max":[0.75,0.9076687693595886],"min":[0,0],"type":"VEC2"},{"bufferView":7,"componentType":5123,"count":396,"max":[295],"min":[0],"type":"SCALAR"},{"bufferView":8,"componentType":5126,"count":324,"max":[0.20624999701976776,0.5625,0.42500001192092896],"min":[-0.20624999701976776,0,-0.4375],"type":"VEC3"},{"bufferView":9,"componentType":5126,"count":324,"max":[1,1,1],"min":[-1,-1,-1],"type":"VEC3"},{"bufferView":10,"componentType":5126,"count":324,"max":[0.5625,0.53125],"min":[0,0],"type":"VEC2"},{"bufferView":11,"componentType":5123,"count":474,"max":[323],"min":[0],"type":"SCALAR"},{"bufferView":12,"componentType":5126,"count":64,"max":[0.0366116538643837,0.2562499940395355,0.2133883535861969],"min":[-0.0794137492775917,0.24375000596046448,0.0973629429936409],"type":"VEC3"},{"bufferView":13,"componentType":5126,"count":64,"max":[1,1,1],"min":[-0.7071067690849304,-1,-0.7071067690849304],"type":"VEC3"},{"bufferView":14,"componentType":5126,"count":64,"max":[0.3125,0.3125],"min":[0.004487500060349703,0],"type":"VEC2"},{"bufferView":15,"componentType":5123,"count":78,"max":[63],"min":[0],"type":"SCALAR"},{"bufferView":16,"componentType":5126,"count":10,"max":[0.5],"min":[0],"type":"SCALAR"},{"bufferView":17,"componentType":5126,"count":10,"max":[0,-0.015625,0],"min":[0,-0.078125,0],"type":"VEC3"},{"bufferView":18,"componentType":5126,"count":10,"max":[0.5],"min":[0],"type":"SCALAR"},{"bufferView":19,"componentType":5126,"count":10,"max":[0.3125,-0.0625,0.625],"min":[0.3125,-0.3125,0.625],"type":"VEC3"},{"bufferView":20,"componentType":5126,"count":1,"max":[0],"min":[0],"type":"SCALAR"},{"bufferView":21,"componentType":5126,"count":1,"max":[0,-0.078125,0],"min":[0,-0.078125,0],"type":"VEC3"},{"bufferView":22,"componentType":5126,"count":5,"max":[0.2083333283662796],"min":[0],"type":"SCALAR"},{"bufferView":23,"componentType":5126,"count":5,"max":[0.3125,-0.0625,0.625],"min":[0.3125,-0.3125,0.625],"type":"VEC3"},{"bufferView":24,"componentType":5126,"count":12,"max":[0.6666666865348816],"min":[0],"type":"SCALAR"},{"bufferView":25,"componentType":5126,"count":12,"max":[0.0007537108031101525,0.019123779609799385,0.9939088821411133,1],"min":[-0.021731525659561157,-0.003364029573276639,0,-0.722318172454834],"type":"VEC4"},{"bufferView":26,"componentType":5126,"count":12,"max":[0.6666666865348816],"min":[0],"type":"SCALAR"},{"bufferView":27,"componentType":5126,"count":12,"max":[0.11874999850988388,1.1569443941116333,0.2750000059604645],"min":[-0.5687500238418579,-0.16249999403953552,0.2750000059604645],"type":"VEC3"},{"bufferView":28,"componentType":5126,"count":13,"max":[0.75],"min":[0],"type":"SCALAR"},{"bufferView":29,"componentType":5126,"count":13,"max":[0.2418447583913803,0.2418447583913803,0,1],"min":[0,-0.0038516325876116753,-0.9919948577880859,-0.6644630432128906],"type":"VEC4"},{"bufferView":30,"componentType":5126,"count":13,"max":[0.75],"min":[0],"type":"SCALAR"},{"bufferView":31,"componentType":5126,"count":13,"max":[0.8812500238418579,1.1569443941116333,0.2750000059604645],"min":[0.2562499940395355,-0.16249999403953552,0.2750000059604645],"type":"VEC3"},{"bufferView":32,"componentType":5126,"count":8,"max":[0.2916666567325592],"min":[0],"type":"SCALAR"},{"bufferView":33,"componentType":5126,"count":8,"max":[0.04345892742276192,-0.9988646507263184,0.00864972174167633,0.01812557503581047],"min":[-0.00864972174167633,-1,-0.025707298889756203,-0.026324212551116943],"type":"VEC4"},{"bufferView":34,"componentType":5126,"count":8,"max":[0.2916666567325592],"min":[0],"type":"SCALAR"},{"bufferView":35,"componentType":5126,"count":8,"max":[0.35624998807907104,0.3062500059604645,0.29374998807907104],"min":[0.29374998807907104,0.2874999940395355,0.25],"type":"VEC3"}],"materials":[{"pbrMetallicRoughness":{"metallicFactor":0,"roughnessFactor":1,"baseColorTexture":{"index":0}},"alphaMode":"MASK","alphaCutoff":0.05,"doubleSided":true},{"pbrMetallicRoughness":{"metallicFactor":0,"roughnessFactor":1,"baseColorTexture":{"index":1}},"alphaMode":"MASK","alphaCutoff":0.05,"doubleSided":true},{"pbrMetallicRoughness":{"metallicFactor":0,"roughnessFactor":1,"baseColorTexture":{"index":2}},"alphaMode":"MASK","alphaCutoff":0.05,"doubleSided":true}],"textures":[{"sampler":0,"source":0,"name":"tost"},{"sampler":1,"source":1,"name":"toster.png"},{"sampler":2,"source":2,"name":"lever"}],"samplers":[{"magFilter":9728,"minFilter":9728,"wrapS":33071,"wrapT":33071},{"magFilter":9728,"minFilter":9728,"wrapS":33071,"wrapT":33071},{"magFilter":9728,"minFilter":9728,"wrapS":33071,"wrapT":33071}],"images":[{"mimeType":"image/png","uri":"data:image/png;base64,"},{"mimeType":"image/png","uri":"data:image/png;base64,"},{"mimeType":"image/png","uri":"data:image/png;base64,"}],"meshes":[{"primitives":[{"mode":4,"attributes":{"POSITION":0,"NORMAL":1,"TEXCOORD_0":2},"indices":3,"material":0}]},{"primitives":[{"mode":4,"attributes":{"POSITION":4,"NORMAL":5,"TEXCOORD_0":6},"indices":7,"material":0}]},{"primitives":[{"mode":4,"attributes":{"POSITION":8,"NORMAL":9,"TEXCOORD_0":10},"indices":11,"material":1}]},{"primitives":[{"mode":4,"attributes":{"POSITION":12,"NORMAL":13,"TEXCOORD_0":14},"indices":15,"material":2}]}],"animations":[{"name":"toaster_on","samplers":[{"input":16,"output":17,"interpolation":"LINEAR"},{"input":18,"output":19,"interpolation":"LINEAR"}],"channels":[{"sampler":0,"target":{"node":4,"path":"translation"}},{"sampler":1,"target":{"node":8,"path":"translation"}}]},{"name":"toasts_ready","samplers":[{"input":20,"output":21,"interpolation":"LINEAR"},{"input":22,"output":23,"interpolation":"LINEAR"},{"input":24,"output":25,"interpolation":"LINEAR"},{"input":26,"output":27,"interpolation":"LINEAR"},{"input":28,"output":29,"interpolation":"LINEAR"},{"input":30,"output":31,"interpolation":"LINEAR"}],"channels":[{"sampler":0,"target":{"node":4,"path":"translation"}},{"sampler":1,"target":{"node":8,"path":"translation"}},{"sampler":2,"target":{"node":1,"path":"rotation"}},{"sampler":3,"target":{"node":1,"path":"translation"}},{"sampler":4,"target":{"node":3,"path":"rotation"}},{"sampler":5,"target":{"node":3,"path":"translation"}}]},{"name":"toaster_electrified","samplers":[{"input":32,"output":33,"interpolation":"LINEAR"},{"input":34,"output":35,"interpolation":"LINEAR"}],"channels":[{"sampler":0,"target":{"node":9,"path":"rotation"}},{"sampler":1,"target":{"node":9,"path":"translation"}}]}]}