{"asset":{"version":"2.0","generator":"Blockbench 4.11.2 glTF exporter"},"scenes":[{"nodes":[5],"name":"blockbench_export"}],"scene":0,"nodes":[{"translation":[0,0.4375,0],"name":"sphere","mesh":0},{"name":"kapelusz","children":[0]},{"translation":[0,0.125,0],"name":"cylinder","mesh":1},{"name":"cylinder","mesh":2},{"name":"trzongrzyba","children":[2,3]},{"children":[1,4]}],"bufferViews":[{"buffer":0,"byteOffset":0,"byteLength":2304,"target":34962,"byteStride":12},{"buffer":0,"byteOffset":2304,"byteLength":2304,"target":34962,"byteStride":12},{"buffer":0,"byteOffset":4608,"byteLength":1536,"target":34962,"byteStride":8},{"buffer":0,"byteOffset":6144,"byteLength":540,"target":34963},{"buffer":0,"byteOffset":6684,"byteLength":1440,"target":34962,"byteStride":12},{"buffer":0,"byteOffset":8124,"byteLength":1440,"target":34962,"byteStride":12},{"buffer":0,"byteOffset":9564,"byteLength":960,"target":34962,"byteStride":8},{"buffer":0,"byteOffset":10524,"byteLength":288,"target":34963},{"buffer":0,"byteOffset":10812,"byteLength":1440,"target":34962,"byteStride":12},{"buffer":0,"byteOffset":12252,"byteLength":1440,"target":34962,"byteStride":12},{"buffer":0,"byteOffset":13692,"byteLength":960,"target":34962,"byteStride":8},{"buffer":0,"byteOffset":14652,"byteLength":288,"target":34963},{"buffer":0,"byteOffset":14940,"byteLength":68},{"buffer":0,"byteOffset":15008,"byteLength":204}],"buffers":[{"byteLength":15212,"uri":"data:application/octet-stream;base64,"}],"accessors":[{"bufferView":0,"componentType":5126,"count":192,"max":[0.46875,0.34375,0.46875],"min":[-0.46875,0.125,-0.46875],"type":"VEC3"},{"bufferView":1,"componentType":5126,"count":192,"max":[0.8059900999069214,0.9999996423721313,0.8059900999069214],"min":[-0.8059900999069214,-1,-0.8059900999069214],"type":"VEC3"},{"bufferView":2,"componentType":5126,"count":192,"max":[0.7967246770858765,0.828125],"min":[0,0],"type":"VEC2"},{"bufferView":3,"componentType":5123,"count":270,"max":[191],"min":[0],"type":"SCALAR"},{"bufferView":4,"componentType":5126,"count":120,"max":[0.25,0.46875,0.25],"min":[-0.25,-0.09375,-0.25],"type":"VEC3"},{"bufferView":5,"componentType":5126,"count":120,"max":[1,1,1],"min":[-1,-1,-1],"type":"VEC3"},{"bufferView":6,"componentType":5126,"count":120,"max":[0.6518031358718872,0.75],"min":[0.004446874838322401,0.109375],"type":"VEC2"},{"bufferView":7,"componentType":5123,"count":144,"max":[119],"min":[0],"type":"SCALAR"},{"bufferView":8,"componentType":5126,"count":120,"max":[0.3125,0.125,0.3125],"min":[-0.3125,0,-0.3125],"type":"VEC3"},{"bufferView":9,"componentType":5126,"count":120,"max":[1,1,1],"min":[-1,-1,-1],"type":"VEC3"},{"bufferView":10,"componentType":5126,"count":120,"max":[0.8049859404563904,0.59375],"min":[0,0.1875],"type":"VEC2"},{"bufferView":11,"componentType":5123,"count":144,"max":[119],"min":[0],"type":"SCALAR"},{"bufferView":12,"componentType":5126,"count":17,"max":[1],"min":[0],"type":"SCALAR"},{"bufferView":13,"componentType":5126,"count":17,"max":[0,0,0],"min":[0,-0.1401909738779068,0],"type":"VEC3"}],"materials":[{"pbrMetallicRoughness":{"metallicFactor":0,"roughnessFactor":1,"baseColorTexture":{"index":0}},"alphaMode":"MASK","alphaCutoff":0.05,"doubleSided":true}],"textures":[{"sampler":0,"source":0,"name":"texture"}],"samplers":[{"magFilter":9728,"minFilter":9728,"wrapS":33071,"wrapT":33071}],"images":[{"mimeType":"image/png","uri":"data:image/png;base64,"}],"meshes":[{"primitives":[{"mode":4,"attributes":{"POSITION":0,"NORMAL":1,"TEXCOORD_0":2},"indices":3,"material":0}]},{"primitives":[{"mode":4,"attributes":{"POSITION":4,"NORMAL":5,"TEXCOORD_0":6},"indices":7,"material":0}]},{"primitives":[{"mode":4,"attributes":{"POSITION":8,"NORMAL":9,"TEXCOORD_0":10},"indices":11,"material":0}]}],"animations":[{"name":"animation","samplers":[{"input":12,"output":13,"interpolation":"LINEAR"}],"channels":[{"sampler":0,"target":{"node":1,"path":"translation"}}]}]}