{"asset":{"version":"2.0","generator":"Blockbench 4.11.2 glTF exporter"},"scenes":[{"nodes":[2],"name":"blockbench_export"}],"scene":0,"nodes":[{"translation":[0,0.5625,0],"name":"beveled_cuboid","mesh":0},{"translation":[0,-0.0625,0],"name":"beveled_cuboid","mesh":1},{"children":[0,1]}],"bufferViews":[{"buffer":0,"byteOffset":0,"byteLength":4320,"target":34962,"byteStride":12},{"buffer":0,"byteOffset":4320,"byteLength":4320,"target":34962,"byteStride":12},{"buffer":0,"byteOffset":8640,"byteLength":2880,"target":34962,"byteStride":8},{"buffer":0,"byteOffset":11520,"byteLength":1056,"target":34963},{"buffer":0,"byteOffset":12576,"byteLength":1152,"target":34962,"byteStride":12},{"buffer":0,"byteOffset":13728,"byteLength":1152,"target":34962,"byteStride":12},{"buffer":0,"byteOffset":14880,"byteLength":768,"target":34962,"byteStride":8},{"buffer":0,"byteOffset":15648,"byteLength":264,"target":34963}],"buffers":[{"byteLength":15912,"uri":"data:application/octet-stream;base64,"}],"accessors":[{"bufferView":0,"componentType":5126,"count":360,"max":[0.625,0.5,0.625],"min":[-0.625,-0.125,-0.625],"type":"VEC3"},{"bufferView":1,"componentType":5126,"count":360,"max":[1,1,1],"min":[-1,-1,-1],"type":"VEC3"},{"bufferView":2,"componentType":5126,"count":360,"max":[0.7582009434700012,0.7206453084945679],"min":[0,0],"type":"VEC2"},{"bufferView":3,"componentType":5123,"count":528,"max":[359],"min":[0],"type":"SCALAR"},{"bufferView":4,"componentType":5126,"count":96,"max":[0.53125,1.03125,0.53125],"min":[-0.53125,-0.03125,-0.53125],"type":"VEC3"},{"bufferView":5,"componentType":5126,"count":96,"max":[1,1,1],"min":[-1,-1,-1],"type":"VEC3"},{"bufferView":6,"componentType":5126,"count":96,"max":[0.8240436315536499,0.78125],"min":[0,0],"type":"VEC2"},{"bufferView":7,"componentType":5123,"count":132,"max":[95],"min":[0],"type":"SCALAR"}],"materials":[{"pbrMetallicRoughness":{"metallicFactor":0,"roughnessFactor":1,"baseColorTexture":{"index":0}},"alphaMode":"MASK","alphaCutoff":0.05,"doubleSided":true},{"pbrMetallicRoughness":{"metallicFactor":0,"roughnessFactor":1,"baseColorTexture":{"index":1}},"alphaMode":"MASK","alphaCutoff":0.05,"doubleSided":true}],"textures":[{"sampler":0,"source":0,"name":"texture"},{"sampler":1,"source":1,"name":"texture"}],"samplers":[{"magFilter":9728,"minFilter":9728,"wrapS":33071,"wrapT":33071},{"magFilter":9728,"minFilter":9728,"wrapS":33071,"wrapT":33071}],"images":[{"mimeType":"image/png","uri":"data:image/png;base64,"},{"mimeType":"image/png","uri":"data:image/png;base64,"}],"meshes":[{"primitives":[{"mode":4,"attributes":{"POSITION":0,"NORMAL":1,"TEXCOORD_0":2},"indices":3,"material":0}]},{"primitives":[{"mode":4,"attributes":{"POSITION":4,"NORMAL":5,"TEXCOORD_0":6},"indices":7,"material":1}]}]}