{"asset":{"version":"2.0","generator":"Blockbench 4.11.2 glTF exporter"},"scenes":[{"nodes":[8],"name":"blockbench_export"}],"scene":0,"nodes":[{"rotation":[0,0,0.33380685923377096,0.9426414910921784],"translation":[0,0.024999999999999967,0],"name":"lever","mesh":0},{"rotation":[0,0,0.008726535498373935,0.9999619230641713],"translation":[-0.018750000000000003,0.15000000000000002,0],"name":"lever","children":[0]},{"name":"beveled_cuboid","mesh":1},{"translation":[-0.675,0.09999999999999998,0],"name":"cylinder","mesh":2},{"translation":[0,-0.13125,0],"name":"bone"},{"translation":[0,-0.09999999999999998,0],"name":"rest","children":[2,3,4]},{"name":"cuboid","mesh":3},{"translation":[0,-0.23124999999999998,0],"name":"plate","children":[6]},{"children":[1,5,7]}],"bufferViews":[{"buffer":0,"byteOffset":0,"byteLength":4320,"target":34962,"byteStride":12},{"buffer":0,"byteOffset":4320,"byteLength":4320,"target":34962,"byteStride":12},{"buffer":0,"byteOffset":8640,"byteLength":2880,"target":34962,"byteStride":8},{"buffer":0,"byteOffset":11520,"byteLength":1032,"target":34963},{"buffer":0,"byteOffset":12552,"byteLength":5616,"target":34962,"byteStride":12},{"buffer":0,"byteOffset":18168,"byteLength":5616,"target":34962,"byteStride":12},{"buffer":0,"byteOffset":23784,"byteLength":3744,"target":34962,"byteStride":8},{"buffer":0,"byteOffset":27528,"byteLength":1380,"target":34963},{"buffer":0,"byteOffset":28908,"byteLength":3360,"target":34962,"byteStride":12},{"buffer":0,"byteOffset":32268,"byteLength":3360,"target":34962,"byteStride":12},{"buffer":0,"byteOffset":35628,"byteLength":2240,"target":34962,"byteStride":8},{"buffer":0,"byteOffset":37868,"byteLength":672,"target":34963},{"buffer":0,"byteOffset":38540,"byteLength":288,"target":34962,"byteStride":12},{"buffer":0,"byteOffset":38828,"byteLength":288,"target":34962,"byteStride":12},{"buffer":0,"byteOffset":39116,"byteLength":192,"target":34962,"byteStride":8},{"buffer":0,"byteOffset":39308,"byteLength":72,"target":34963},{"buffer":0,"byteOffset":39380,"byteLength":68},{"buffer":0,"byteOffset":39448,"byteLength":272},{"buffer":0,"byteOffset":39720,"byteLength":68},{"buffer":0,"byteOffset":39788,"byteLength":272},{"buffer":0,"byteOffset":40060,"byteLength":68},{"buffer":0,"byteOffset":40128,"byteLength":272},{"buffer":0,"byteOffset":40400,"byteLength":68},{"buffer":0,"byteOffset":40468,"byteLength":272},{"buffer":0,"byteOffset":40740,"byteLength":68},{"buffer":0,"byteOffset":40808,"byteLength":272},{"buffer":0,"byteOffset":41080,"byteLength":64},{"buffer":0,"byteOffset":41144,"byteLength":256}],"buffers":[{"byteLength":41400,"uri":"data:application/octet-stream;base64,"}],"accessors":[{"bufferView":0,"componentType":5126,"count":360,"max":[0.06451808661222458,0.629686176776886,0.07500000298023224],"min":[-0.07296288013458252,-0.018761422485113144,-0.07500000298023224],"type":"VEC3"},{"bufferView":1,"componentType":5126,"count":360,"max":[0.9999988675117493,1,1],"min":[-0.9999988675117493,-1,-1],"type":"VEC3"},{"bufferView":2,"componentType":5126,"count":360,"max":[0.9299885034561157,0.8125],"min":[0.009843749925494194,0],"type":"VEC2"},{"bufferView":3,"componentType":5123,"count":516,"max":[359],"min":[0],"type":"SCALAR"},{"bufferView":4,"componentType":5126,"count":468,"max":[0.38749998807907104,0.46875,0.1875],"min":[-0.38749998807907104,0.140625,-0.1875],"type":"VEC3"},{"bufferView":5,"componentType":5126,"count":468,"max":[1,1,1],"min":[-1,-1,-1],"type":"VEC3"},{"bufferView":6,"componentType":5126,"count":468,"max":[0.6742187738418579,0.609375],"min":[0.0014007812133058906,0.00625002384185791],"type":"VEC2"},{"bufferView":7,"componentType":5123,"count":690,"max":[467],"min":[0],"type":"SCALAR"},{"bufferView":8,"componentType":5126,"count":280,"max":[1.0847941637039185,0.05000000074505806,0.2562499940395355],"min":[0.26520583033561707,0.02500000037252903,-0.2549581229686737],"type":"VEC3"},{"bufferView":9,"componentType":5126,"count":280,"max":[0.9743106961250305,1,1],"min":[-0.9743106961250305,-1,-0.9030928015708923],"type":"VEC3"},{"bufferView":10,"componentType":5126,"count":280,"max":[0.5774484276771545,0.5762390494346619],"min":[0,0.25],"type":"VEC2"},{"bufferView":11,"componentType":5123,"count":336,"max":[279],"min":[0],"type":"SCALAR"},{"bufferView":12,"componentType":5126,"count":24,"max":[0.4437499940395355,0.26875001192092896,0.28125],"min":[-0.4437499940395355,0.23125000298023224,-0.28125],"type":"VEC3"},{"bufferView":13,"componentType":5126,"count":24,"max":[1,1,1],"min":[-1,-1,-1],"type":"VEC3"},{"bufferView":14,"componentType":5126,"count":24,"max":[0.90625,0.59375],"min":[0,0],"type":"VEC2"},{"bufferView":15,"componentType":5123,"count":36,"max":[23],"min":[0],"type":"SCALAR"},{"bufferView":16,"componentType":5126,"count":17,"max":[1],"min":[0],"type":"SCALAR"},{"bufferView":17,"componentType":5126,"count":17,"max":[0,0,0.008726535364985466,0.9999712109565735],"min":[0,0,-0.6360782384872437,0.7716245651245117],"type":"VEC4"},{"bufferView":18,"componentType":5126,"count":17,"max":[1],"min":[0],"type":"SCALAR"},{"bufferView":19,"componentType":5126,"count":17,"max":[0.02181488461792469,0,0,1],"min":[-0.022143999114632607,0,0,0.999754786491394],"type":"VEC4"},{"bufferView":20,"componentType":5126,"count":17,"max":[1],"min":[0],"type":"SCALAR"},{"bufferView":21,"componentType":5126,"count":17,"max":[0,0,0.008726535364985466,0.9999712109565735],"min":[0,0,-0.6360782384872437,0.7716245651245117],"type":"VEC4"},{"bufferView":22,"componentType":5126,"count":17,"max":[1],"min":[0],"type":"SCALAR"},{"bufferView":23,"componentType":5126,"count":17,"max":[0.02181488461792469,0,0,1],"min":[-0.022143999114632607,0,0,0.999754786491394],"type":"VEC4"},{"bufferView":24,"componentType":5126,"count":17,"max":[1],"min":[0],"type":"SCALAR"},{"bufferView":25,"componentType":5126,"count":17,"max":[0.0182490237057209,0.34913134574890137,0.16074256598949432,0.9999619126319885],"min":[-0.10445510596036911,-0.02629203163087368,-0.6375952959060669,0.7603554725646973],"type":"VEC4"},{"bufferView":26,"componentType":5126,"count":16,"max":[1],"min":[0],"type":"SCALAR"},{"bufferView":27,"componentType":5126,"count":16,"max":[0.02181488461792469,0,0,1],"min":[-0.02181488461792469,0,0,0.9997619986534119],"type":"VEC4"}],"materials":[{"pbrMetallicRoughness":{"metallicFactor":0,"roughnessFactor":1,"baseColorTexture":{"index":0}},"alphaMode":"MASK","alphaCutoff":0.05,"doubleSided":true},{"pbrMetallicRoughness":{"metallicFactor":0,"roughnessFactor":1,"baseColorTexture":{"index":1}},"alphaMode":"MASK","alphaCutoff":0.05,"doubleSided":true},{"pbrMetallicRoughness":{"metallicFactor":0,"roughnessFactor":1,"baseColorTexture":{"index":2}},"alphaMode":"MASK","alphaCutoff":0.05,"doubleSided":true}],"textures":[{"sampler":0,"source":0,"name":"texture"},{"sampler":1,"source":1,"name":"texture"},{"sampler":2,"source":2,"name":"texture"}],"samplers":[{"magFilter":9728,"minFilter":9728,"wrapS":33071,"wrapT":33071},{"magFilter":9728,"minFilter":9728,"wrapS":33071,"wrapT":33071},{"magFilter":9728,"minFilter":9728,"wrapS":33071,"wrapT":33071}],"images":[{"mimeType":"image/png","uri":"data:image/png;base64,"},{"mimeType":"image/png","uri":"data:image/png;base64,"},{"mimeType":"image/png","uri":"data:image/png;base64,"}],"meshes":[{"primitives":[{"mode":4,"attributes":{"POSITION":0,"NORMAL":1,"TEXCOORD_0":2},"indices":3,"material":0}]},{"primitives":[{"mode":4,"attributes":{"POSITION":4,"NORMAL":5,"TEXCOORD_0":6},"indices":7,"material":1}]},{"primitives":[{"mode":4,"attributes":{"POSITION":8,"NORMAL":9,"TEXCOORD_0":10},"indices":11,"material":1}]},{"primitives":[{"mode":4,"attributes":{"POSITION":12,"NORMAL":13,"TEXCOORD_0":14},"indices":15,"material":2}]}],"animations":[{"name":"pull-RL","samplers":[{"input":16,"output":17,"interpolation":"LINEAR"},{"input":18,"output":19,"interpolation":"LINEAR"}],"channels":[{"sampler":0,"target":{"node":1,"path":"rotation"}},{"sampler":1,"target":{"node":5,"path":"rotation"}}]},{"name":"pull-LR","samplers":[{"input":20,"output":21,"interpolation":"LINEAR"},{"input":22,"output":23,"interpolation":"LINEAR"}],"channels":[{"sampler":0,"target":{"node":1,"path":"rotation"}},{"sampler":1,"target":{"node":5,"path":"rotation"}}]},{"name":"aaaaa","samplers":[{"input":24,"output":25,"interpolation":"LINEAR"},{"input":26,"output":27,"interpolation":"LINEAR"}],"channels":[{"sampler":0,"target":{"node":1,"path":"rotation"}},{"sampler":1,"target":{"node":5,"path":"rotation"}}]}]}